<?xml version="1.0" encoding="UTF-8" standalone="no"?>

<svg
   width="40"
   height="40"
   viewBox="0 0 10.583334 10.583333"
   version="1.1"
   id="svg5"
   inkscape:version="1.2.2 (b0a8486, 2022-12-01)"
   sodipodi:docname="drawing.svg"
   xmlns:inkscape="http://www.inkscape.org/namespaces/inkscape"
   xmlns:sodipodi="http://sodipodi.sourceforge.net/DTD/sodipodi-0.dtd"
   xmlns:xlink="http://www.w3.org/1999/xlink"
   xmlns="http://www.w3.org/2000/svg"
   xmlns:svg="http://www.w3.org/2000/svg">
  <sodipodi:namedview
     id="namedview7"
     pagecolor="#ffffff"
     bordercolor="#000000"
     borderopacity="0.25"
     inkscape:showpageshadow="2"
     inkscape:pageopacity="0.0"
     inkscape:pagecheckerboard="0"
     inkscape:deskcolor="#d1d1d1"
     inkscape:document-units="px"
     showgrid="false"
     inkscape:zoom="10.995861"
     inkscape:cx="4.5016939"
     inkscape:cy="25.782428"
     inkscape:window-width="1390"
     inkscape:window-height="1027"
     inkscape:window-x="35"
     inkscape:window-y="25"
     inkscape:window-maximized="0"
     inkscape:current-layer="layer1" />
  <defs
     id="defs2">
    <linearGradient
       inkscape:collect="always"
       id="linearGradient3863"
       x1="0"
       y1="0"
       x2="1"
       y2="0"
       gradientUnits="objectBoundingBox"
       spreadMethod="pad">
      <stop
         style="stop-color:#ed1212;stop-opacity:1;"
         offset="0"
         id="stop3859" />
      <stop
         style="stop-color:#d3d32c;stop-opacity:1;"
         offset="1"
         id="stop3861" />
    </linearGradient>
    <linearGradient
       inkscape:collect="always"
       id="linearGradient1477"
       xlink:href="#linearGradient3863">
      <stop
         style="stop-color:#ed1212;stop-opacity:1;"
         offset="0"
         id="stop1473" />
      <stop
         style="stop-color:#f0e400;stop-opacity:1;"
         offset="1"
         id="stop1475" />
    </linearGradient>
  </defs>
  <g
     inkscape:label="Layer 1"
     inkscape:groupmode="layer"
     id="layer1">
    <path
       id="path225"
       style="fill:url(#linearGradient1477);stroke-width:0.0315208;fill-opacity:1"
       d="M 0.14624431 1.2681397 L 0.51056316 1.5533936 C 0.42297399 1.5020732 0.33713818 1.4476639 0.24442953 1.4066325 C 0.20416489 1.3888422 0.31445785 1.4600309 0.34778239 1.488798 C 0.4982529 1.6186952 0.62830693 1.7666521 0.7591268 1.9156454 C 1.036418 2.2477742 1.2806658 2.6080767 1.4748454 2.9951661 C 1.5168891 3.0790074 1.5544445 3.1650203 1.594218 3.2499309 C 1.6282778 3.3272128 1.6599296 3.4053592 1.6898194 3.4840251 C 1.6259372 3.5659675 1.5660281 3.6512365 1.5254883 3.7465414 C 1.5149093 3.7714294 1.5080383 3.7974725 1.4991333 3.8230225 C 1.4931733 3.8516955 1.4852006 3.8798494 1.4810466 3.9088054 C 1.4676186 4.0022043 1.4697604 4.084821 1.4660604 4.1806234 C 1.4569804 4.4162591 1.4493935 4.651789 1.4438395 4.887557 C 1.4367395 5.2521626 1.4163166 5.6219006 1.4722616 5.984131 C 1.4799216 6.0334329 1.4911736 6.08241 1.5006836 6.1314088 C 1.5468346 6.3362237 1.6286682 6.5266908 1.7549317 6.6941651 C 1.7978953 6.7440622 1.8477973 6.7857609 1.901176 6.8228395 C 1.8238898 6.9620787 1.7344426 7.0955183 1.6427938 7.2264324 C 1.4356567 7.5115873 1.2030471 7.7778443 0.95291343 8.0258668 C 0.8783835 8.0949458 0.80697538 8.1680137 0.72347006 8.2263714 L 1.1187948 8.4754518 C 1.1944317 8.4071297 1.2637804 8.331949 1.335319 8.2594443 C 1.5770393 8.0013622 1.8072239 7.7314262 2.0169312 7.446574 C 2.1082941 7.3151351 2.1986586 7.1818078 2.2778972 7.0429811 C 2.2900074 7.0497893 2.301951 7.0568606 2.3140707 7.0636516 C 2.4126156 7.118869 2.5118114 7.1732286 2.6117269 7.2259156 C 2.7338361 7.2902636 2.9286954 7.3622211 3.0525269 7.4109173 C 3.6611238 7.645474 4.2929016 7.8128743 4.9242473 7.9731569 C 5.2121749 8.0415738 5.5008201 8.1097207 5.7939617 8.1524741 C 5.9045735 8.1685611 6.0157865 8.1793447 6.1267579 8.1927817 L 5.8022299 7.9504192 C 5.6896869 7.9349944 5.576975 7.9222174 5.4647828 7.9044272 C 5.1732972 7.8583429 4.8859794 7.7906196 4.5986858 7.7240765 C 3.9642268 7.5654404 3.3307846 7.3954929 2.7228313 7.1515016 C 2.6394631 7.116962 2.5553095 7.0838654 2.4727173 7.0476319 C 2.4343293 7.030797 2.3726204 6.9802523 2.3275065 6.9520305 C 2.4117597 6.7910741 2.4791834 6.62194 2.5145752 6.4399171 C 2.5230918 6.3845591 2.5344082 6.3298101 2.5398967 6.2740357 C 2.5758557 5.9113134 2.4926285 5.5479933 2.4473959 5.1903809 C 2.4068917 4.966681 2.364032 4.7429142 2.3140707 4.5206544 C 2.2520868 4.2449104 2.1790097 3.9716618 2.0841105 3.705717 C 2.1253643 3.650632 2.1687653 3.5970395 2.210201 3.543453 C 2.2518152 3.4959324 2.2815519 3.4605494 2.3140707 3.425114 C 2.3388604 3.3981009 2.3647697 3.3710013 2.3998536 3.337264 C 2.5861781 3.1580651 2.8008624 3.0120936 3.0272055 2.8881958 C 3.2403856 2.7778869 3.2990824 2.7403102 3.5289836 2.6525513 C 3.9216939 2.5026212 4.3347242 2.4138352 4.7526816 2.3740153 C 4.8505185 2.3673953 4.9482249 2.3584473 5.0462037 2.3543783 C 5.3032539 2.3438743 5.56073 2.356883 5.8177328 2.361613 L 5.4368775 2.0851441 L 5.4368775 2.0856608 C 5.1926023 2.0959753 4.9476466 2.0901935 4.7035889 2.1068482 C 4.6073607 2.1134723 4.5113017 2.1244974 4.4152344 2.1332032 C 3.9967094 2.1778681 3.5834005 2.2736357 3.1894695 2.4225912 C 2.9555561 2.5110693 2.8946505 2.5482711 2.6763225 2.657719 C 2.4419549 2.7797809 2.21825 2.9240392 2.0241659 3.1042033 C 1.9625817 3.1614025 1.9308896 3.1958047 1.8913575 3.2401124 C 1.8800466 3.2154967 1.8681392 3.1910533 1.8562175 3.1667318 C 1.6661741 2.779141 1.4258795 2.4177135 1.1539348 2.083077 C 1.0334408 1.9404806 1.0034302 1.8994534 0.8779826 1.7688843 C 0.85378592 1.7437129 0.7111354 1.6009635 0.67024334 1.5745809 C 0.31648897 1.3463263 0.35284682 1.3656265 0.14624431 1.2681397 z M 1.8882569 4.1118938 C 1.9651968 4.4075269 2.0239215 4.7084607 2.0758423 5.0095134 C 2.1144513 5.3061847 2.1628348 5.6048083 2.1580078 5.905066 C 2.1551678 6.0587814 2.1469391 6.0828991 2.1244182 6.2337281 C 2.0996535 6.3655263 2.0583502 6.4907159 2.0060791 6.6109661 C 1.961655 6.5200999 1.9268185 6.4242395 1.9006592 6.3246786 C 1.8895876 6.2760393 1.8768599 6.2279406 1.8675863 6.1789511 C 1.7988857 5.8173833 1.8064905 5.4447186 1.8164266 5.0787598 C 1.8273086 4.8467864 1.8391183 4.6151459 1.8588013 4.3837118 C 1.8616413 4.3486049 1.8775351 4.178038 1.885673 4.1253297 C 1.8863061 4.1208248 1.8874628 4.1163758 1.8882569 4.1118938 z M 3.4550863 4.6059205 C 3.4371008 4.606037 3.4209291 4.6068925 3.4116781 4.6090211 C 3.3892511 4.6147011 3.3688903 4.6273246 3.3475993 4.6364096 C 3.2772904 4.6784245 3.2148958 4.7296541 3.1538127 4.7836874 L 3.3016073 4.8756715 C 3.2142662 4.9091797 3.1516319 4.9712217 3.1088542 5.0539552 C 3.0675963 5.1669326 3.0739032 5.2874661 3.0804322 5.4053549 C 3.0861122 5.4996058 3.1156458 5.5878257 3.1713827 5.6637371 C 3.3301795 5.8133928 3.2188543 5.7132266 3.65094 5.957776 C 3.684628 5.976796 3.7382695 5.9889633 3.7744467 5.9965333 C 3.8344416 6.0090243 3.8727448 6.0126832 3.9336101 6.0208212 C 4.025684 6.0246112 4.1197219 6.0473086 4.2121461 6.0352906 C 4.257189 6.0296106 4.2805522 6.0182535 4.3222169 6.0027345 C 4.4000018 5.9694255 4.4578269 5.9182175 4.490682 5.8404705 C 4.513866 5.7373439 4.5051406 5.6285617 4.5005006 5.5236939 C 4.4910403 5.3631839 4.4475472 5.2100857 4.3759604 5.0668743 C 4.2455901 4.8341248 4.0024395 4.6805975 3.7382732 4.6250408 C 3.6707081 4.614537 3.6023503 4.6107318 3.5341513 4.6079875 C 3.5196613 4.6073961 3.4850622 4.6057263 3.4550863 4.6059205 z M 5.4337769 4.633309 C 5.2979749 4.635199 5.1617294 4.6388395 5.0286337 4.6674154 C 4.9508488 4.6835974 4.8760322 4.7088007 4.8172771 4.7635336 C 4.7843461 4.7968426 4.7553701 4.8335943 4.7273601 4.8710206 C 4.6968901 4.9142655 4.6864194 4.9618856 4.6829184 5.0136475 C 4.6838647 5.1036394 4.6792683 5.1928744 4.6699993 5.282365 C 4.6640902 5.331063 4.6603247 5.3802243 4.6570802 5.4291261 C 4.6249079 5.4286302 4.5926118 5.4282611 4.5604452 5.4275758 L 4.652946 5.4947551 C 4.6520795 5.5261122 4.6498455 5.557374 4.6498455 5.5888062 C 4.6493534 5.6047042 4.6500348 5.6209683 4.6498455 5.6368653 C 4.6503565 5.6615633 4.650633 5.6859696 4.650879 5.7107626 C 4.652769 5.7619566 4.6515093 5.8135167 4.6513957 5.8647584 C 4.6512633 5.8815074 4.6507029 5.8981356 4.6503622 5.9148845 L 5.0725587 6.1298585 C 5.0720382 6.1127305 5.0715251 6.0958268 5.0715251 6.0786988 C 5.071298 6.0277889 5.07095 5.9766754 5.0725587 5.9257366 C 5.0727858 5.9013226 5.0731286 5.876771 5.0735922 5.852356 C 5.0733462 5.8363641 5.0736716 5.820289 5.0730754 5.804297 C 5.073047 5.772691 5.0711702 5.7413251 5.0725587 5.7097291 C 5.0725856 5.7062733 5.0725145 5.7028494 5.0725587 5.6993938 C 5.2042667 5.6973983 5.3356572 5.6973267 5.4673666 5.6973267 C 5.6225109 5.6974213 5.7778554 5.6981939 5.9329713 5.7019776 L 5.5546998 5.4275758 C 5.4035773 5.4304158 5.2526389 5.4322266 5.1014975 5.4322266 C 5.0975402 5.4322204 5.0935692 5.4322332 5.0896119 5.4322266 L 5.0896119 5.4317099 C 5.095685 5.3647539 5.1008187 5.2976162 5.1004639 5.2301718 C 5.1033039 5.1878728 5.1080381 5.1474512 5.1330201 5.1118328 C 5.1595161 5.0770098 5.1870592 5.0428422 5.2182862 5.0120972 C 5.2726032 4.9662023 5.3409019 4.9472775 5.409489 4.9325155 C 5.5429159 4.9071546 5.6785973 4.9038169 5.8141155 4.9097779 L 5.4337769 4.633309 z M 7.7819541 4.6891195 C 7.7541917 4.6893829 7.7261738 4.690693 7.698755 4.6948039 C 7.6422611 4.7023739 7.6084584 4.7464719 7.5798992 4.7914389 C 7.5552952 4.8313718 7.5462946 4.875195 7.5416586 4.9211467 C 7.5378687 4.9683667 7.5380413 5.0159518 7.5380413 5.0632569 C 7.5418313 5.1294028 7.5698094 5.1913891 7.5948854 5.2518759 C 7.6184483 5.3214278 7.6663964 5.3745116 7.7152915 5.427059 C 7.7951529 5.5013427 7.8980168 5.5634836 7.9995118 5.6192953 C 8.016133 5.6314506 8.0326968 5.6443629 8.0486045 5.6575359 C 8.0954454 5.6925489 8.1240509 5.7393729 8.1493735 5.7908611 C 8.1701915 5.835999 8.1808598 5.8842522 8.1860638 5.933488 C 8.1898538 5.984115 8.1946158 5.9608691 8.1617758 5.9619101 C 8.0876809 5.9657001 8.0137563 5.9655274 7.9395672 5.9655274 C 7.8731319 5.9656113 7.8065296 5.9643328 7.7400962 5.9639771 C 7.7383695 5.9582054 7.7365969 5.952434 7.7354453 5.9464072 L 7.3101482 5.7371176 C 7.3120382 5.7556646 7.3130085 5.7745776 7.3204835 5.7918946 C 7.3360025 5.8322066 7.3565224 5.8724127 7.3886964 5.9019654 C 7.4157604 5.9259064 7.4022379 5.9161636 7.4336549 5.9345216 C 7.6004195 6.0324155 7.7586242 6.1396531 7.933366 6.2197755 C 7.985885 6.2383225 8.038964 6.2435253 8.0945965 6.2399293 C 8.1687854 6.2401564 8.2431044 6.2395886 8.3173219 6.2399293 C 8.3944448 6.2400618 8.472268 6.2425878 8.5488323 6.2321778 C 8.5947273 6.2186458 8.6159615 6.1914091 8.6098105 6.1438111 C 8.6041322 6.0902432 8.5954742 6.0365159 8.5767376 5.9856812 C 8.5540267 5.9302287 8.5308453 5.8736634 8.48372 5.8342693 C 8.4380143 5.7918755 8.3895117 5.7527629 8.3348919 5.7221314 C 8.2972241 5.700172 8.2598932 5.6779581 8.2222373 5.6559856 C 8.2109288 5.6482854 8.1941302 5.6370885 8.1762452 5.6254965 C 8.1667853 5.6198165 8.157614 5.6138875 8.14834 5.6079265 C 8.1014038 5.5581514 8.0451003 5.513349 8.0212159 5.4472128 C 7.9952877 5.3926119 7.973406 5.3354415 7.9581707 5.2771973 C 7.9582275 5.2312074 7.9574714 5.1847416 7.959721 5.1387045 C 7.962561 5.1002855 7.9672803 5.0627811 7.9876263 5.0291505 C 8.0113782 4.9928125 8.0346474 4.9685577 8.0816774 4.9671388 C 8.1563362 4.9630469 8.2311989 4.9644767 8.3059531 4.966622 C 8.307292 5.0634577 8.3080091 5.1602879 8.3033693 5.2570435 L 8.7224651 5.4704672 C 8.7167874 5.3514144 8.7190223 5.2319758 8.7209149 5.1128663 C 8.7190223 5.0647947 8.7162328 4.993328 8.6676881 4.9650717 C 8.5239465 4.8817983 8.3775536 4.8028201 8.2325726 4.7216757 C 8.1453246 4.6985862 8.0551326 4.6945858 7.9654054 4.6922201 C 7.9046415 4.6941726 7.8430312 4.6885403 7.7819541 4.6891195 z M 5.9262533 4.7836874 C 5.9328733 4.9197923 5.9270705 5.0563431 5.9329713 5.192448 C 5.9348613 5.2997289 5.9562363 5.4027487 5.9944662 5.5025066 C 6.0295732 5.5942965 6.067268 5.6851257 6.1050538 5.7758749 C 6.1298468 5.8300969 6.1509475 5.8870787 6.1846355 5.9365886 C 6.5508686 6.1710414 6.4873687 6.185033 6.7489422 6.1846355 C 6.8397861 6.1903155 6.9170698 6.1460875 6.9897543 6.0967856 C 7.0725543 6.0401026 7.1290545 5.9578928 7.1887086 5.8792278 C 7.2701845 5.7803219 7.2886947 5.6540866 7.3142823 5.5324789 C 7.3343433 5.434557 7.3500404 5.3355537 7.3623414 5.236373 C 7.3670714 5.200603 7.3681005 5.1664601 7.3576905 5.1319866 C 7.3491706 5.1099376 7.3540479 5.1204747 7.3437379 5.1009807 L 6.9101726 4.9108114 C 6.9220016 4.9259524 6.9160544 4.9179426 6.9282594 4.9325155 C 6.9329894 4.9419755 6.9428516 4.9557027 6.9453126 4.9650717 C 6.9500426 4.9819157 6.941602 5.002394 6.9447958 5.0193319 C 6.9400658 5.1186448 6.9277811 5.217283 6.9091391 5.3149211 C 6.8848191 5.4289964 6.8631875 5.5479565 6.788733 5.6415162 C 6.7311991 5.7156111 6.6773819 5.7932836 6.5970135 5.8451213 C 6.5641681 5.8656829 6.5313571 5.8823625 6.4967612 5.8936972 C 6.4693174 5.8292251 6.4415161 5.7646351 6.4171795 5.698877 C 6.3786655 5.6028002 6.3487049 5.5048565 6.345866 5.4001873 C 6.3382957 5.2660697 6.3412139 5.1313517 6.3453492 4.9971111 L 5.9272869 4.7842042 L 5.9262533 4.7836874 z M 8.2279217 4.7945395 C 8.2323308 4.7951174 8.2485482 4.8004895 8.2547934 4.8033245 C 8.2676798 4.8092842 8.2770299 4.8184617 8.284249 4.8291627 C 8.2655564 4.8180857 8.2465125 4.807337 8.2279217 4.7960898 C 8.2260292 4.7949073 8.226452 4.7943468 8.2279217 4.7945395 z M 9.384957 4.8627524 C 9.3556928 4.8636801 9.3265478 4.8673485 9.2976238 4.8751547 C 9.2089569 4.9110187 9.1522986 4.9941157 9.0929852 5.065324 C 9.0396142 5.1328889 8.9927134 5.2050741 8.9570762 5.2833985 C 8.9312422 5.3460425 8.9267536 5.4128757 8.9296876 5.479769 C 8.9334776 5.5653139 8.962801 5.6460008 8.996867 5.7236817 C 9.029987 5.7886917 9.067463 5.8510885 9.1115887 5.9092001 C 9.2689472 6.07552 9.4907972 6.1712132 9.709485 6.227527 C 9.8041149 6.2523199 9.8976838 6.2774919 9.9952557 6.2869549 C 10.107012 6.2977428 10.218246 6.2750138 10.326502 6.2497478 L 9.9523643 5.9887818 C 9.8432474 6.0069508 9.732256 6.0250729 9.6216351 6.0084189 C 9.5660002 5.9997172 9.5112693 5.9874498 9.4567873 5.9737957 C 9.4453751 5.9547924 9.4344544 5.9355616 9.4226808 5.9169516 C 9.3858701 5.8461692 9.355837 5.7694706 9.3482667 5.6895753 C 9.3463135 5.6651214 9.3457911 5.6401798 9.3472332 5.615678 L 9.4666058 5.7024944 C 9.6136501 5.6977644 9.7608317 5.6984438 9.9079225 5.6993938 C 10.020663 5.7041238 10.134027 5.6887874 10.236585 5.6409994 C 10.315885 5.6045675 10.384212 5.5568478 10.426237 5.4792522 C 10.446297 5.4379942 10.453662 5.3938953 10.449492 5.3485108 C 10.422242 5.2903139 10.355463 5.2586541 10.303247 5.2250042 C 10.067271 5.0760202 9.8484654 4.9355442 9.5787436 4.8808391 C 9.5144693 4.8718611 9.4493383 4.8607114 9.384957 4.8627524 z M 3.8447266 4.8761882 C 3.8811944 4.8758759 3.9201861 4.8795585 3.9589315 4.8844565 C 4.0337857 5.0178408 4.0806816 5.1625495 4.0886394 5.3164714 C 4.0933694 5.4143933 4.0949944 5.5138905 4.0798544 5.6110271 C 4.0561024 5.678024 4.0026725 5.7167864 3.9372274 5.7417685 C 3.8156103 5.7783894 3.6905048 5.7606158 3.5661906 5.7453858 C 3.5539688 5.7433883 3.5416582 5.7412327 3.5295004 5.7391847 C 3.5121147 5.6999881 3.5013708 5.6576654 3.4959107 5.6136109 C 3.487394 5.5038791 3.4781256 5.3914879 3.515031 5.2854656 C 3.5541127 5.2076806 3.6163716 5.1570794 3.7026164 5.137671 L 3.5046957 5.0022787 L 3.5444865 5.0270834 C 3.6023045 4.9767405 3.6604416 4.9264699 3.7315552 4.8953085 C 3.7505762 4.8905785 3.7689053 4.8831613 3.7883993 4.8803223 C 3.8061068 4.8777142 3.825017 4.876357 3.8447266 4.8761882 z M 9.8758831 5.0627402 C 9.8857614 5.0681743 9.8958114 5.0737818 9.9053387 5.0797934 C 9.8953041 5.0738828 9.8863828 5.0689346 9.8758831 5.0627402 z M 9.7322226 5.1387045 C 9.8044459 5.1365576 9.8768472 5.1494302 9.9477134 5.1619589 C 9.9762979 5.1689789 10.004589 5.1768234 10.032463 5.1852133 C 10.029434 5.2073362 10.02136 5.234 10.017993 5.2456747 C 9.9835534 5.3148487 9.9175773 5.3521787 9.8484946 5.3821005 C 9.7481687 5.4197625 9.6423143 5.4318273 9.5353354 5.4286093 C 9.4927109 5.4288784 9.4503258 5.4290753 9.4076946 5.4291261 C 9.432396 5.3854966 9.461297 5.3437656 9.492444 5.3045859 C 9.5457239 5.2407109 9.5981384 5.1650953 9.6826133 5.1428386 C 9.6992201 5.1405498 9.7155557 5.1391999 9.7322226 5.1387045 z M 10.219015 5.2627279 C 10.301064 5.3051565 10.351545 5.3380221 10.219015 5.2627279 z M 7.4842978 5.8833619 C 7.4845514 5.8833165 7.4869758 5.8843023 7.492566 5.887496 C 7.5226288 5.9046851 7.5424573 5.9161845 7.5690472 5.931421 C 7.5727943 5.9391842 7.4826917 5.8836498 7.4842978 5.8833619 z M 6.2368287 5.885429 C 6.2408336 5.8877879 6.244709 5.8903055 6.2487143 5.8926637 C 6.2382244 5.8881546 6.2360131 5.884963 6.2368287 5.885429 z M 6.5882285 6.0916179 C 6.5997486 6.0983764 6.6113331 6.1050104 6.6228517 6.1117717 C 6.6162317 6.1098817 6.6093144 6.1098773 6.6037314 6.1060873 C 6.5981212 6.1021934 6.5927805 6.0974594 6.5882285 6.0916179 z M 7.9173463 6.1324423 C 7.9355354 6.1431284 7.9456048 6.1493621 7.950936 6.1525961 C 7.9447916 6.1490508 7.932329 6.1414519 7.9173463 6.1324423 z M 2.4355103 7.0595175 C 2.4505172 7.0657176 2.4649543 7.0727644 2.4768514 7.0812216 C 2.4992414 7.097142 2.4723703 7.0813639 2.4355103 7.0595175 z " />
  </g>
</svg>
